Coordinates
version=1
nRows=11
nColumns=40
inDegrees=yes

Units are S.I. units (second, meters, Newtons, ...)
If the header above contains a line with 'inDegrees', this indicates whether rotational values are in degrees (yes) or radians (no).

endheader
time	pelvis_tilt	pelvis_list	pelvis_rotation	pelvis_tx	pelvis_ty	pelvis_tz	hip_flexion_r	hip_adduction_r	hip_rotation_r	knee_angle_r	knee_angle_r_beta	ankle_angle_r	subtalar_angle_r	mtp_angle_r	hip_flexion_l	hip_adduction_l	hip_rotation_l	knee_angle_l	knee_angle_l_beta	ankle_angle_l	subtalar_angle_l	mtp_angle_l	lumbar_extension	lumbar_bending	lumbar_rotation	arm_flex_r	arm_add_r	arm_rot_r	elbow_flex_r	pro_sup_r	wrist_flex_r	wrist_dev_r	arm_flex_l	arm_add_l	arm_rot_l	elbow_flex_l	pro_sup_l	wrist_flex_l	wrist_dev_l
      7.73300000	      5.57825658	      3.08046167	      3.30551070	      0.06288869	      1.32039872	     -0.00404508	     47.72105719	     -2.69207623	      1.92004060	     71.74259382	      1.25214448	     -2.17292227	    -16.11419738	      0.00000000	     34.14781866	     -5.09453289	     -9.29661360	     87.72635625	      1.53111376	      0.63306597	    -10.93283269	      0.00000000	    -60.24768533	     -2.91843392	     -3.26326460	     56.94315201	     15.49796260	    -53.88050454	     32.63599709	     77.26994646	      0.00000000	      0.00000000	     57.95166716	     15.66906710	    -42.49793923	     33.64811421	      3.41308092	      0.00000000	      0.00000000
      7.75000000	      5.52505478	      3.50224232	      3.82442533	      0.06276821	      1.32055064	     -0.00458255	     45.31097353	     -3.44066997	      1.54035320	     68.11450456	      1.18882237	     -3.02647224	    -15.75419367	      0.00000000	     35.94374319	     -4.85894518	     -9.02951973	     90.76826306	      1.58420505	      1.10077829	    -10.41159216	      0.00000000	    -60.24822358	     -2.80973819	     -3.79679751	     56.86189944	     15.46395908	    -54.04738748	     32.69558731	     77.18773269	      0.00000000	      0.00000000	     57.99494102	     15.71187393	    -42.42365522	     33.51947226	      3.49683095	      0.00000000	      0.00000000
      7.76700000	      5.46367462	      3.79354162	      4.45836229	      0.06263083	      1.32063754	     -0.00518442	     42.85256885	     -4.13952578	      0.89770664	     64.58482287	      1.12721781	     -3.96691402	    -15.51100320	      0.00000000	     37.89565317	     -4.65841136	     -8.55955275	     93.70637303	      1.63548474	      1.49723371	     -9.70195589	      0.00000000	    -60.23026384	     -2.55838770	     -4.27661253	     56.75392291	     15.39863504	    -54.22614098	     32.75187938	     77.26229946	      0.00000000	      0.00000000	     58.02010244	     15.72175745	    -42.19528246	     33.41783740	      3.27894161	      0.00000000	      0.00000000
      7.78300000	      5.20990946	      4.53009312	      4.67151536	      0.06253246	      1.32048522	     -0.00536951	     40.67631658	     -4.87627312	      0.93428115	     61.26195307	      1.06922279	     -4.88211903	    -15.18764318	      0.00000000	     39.93415729	     -4.28161950	     -8.81661087	     96.34262155	      1.68149596	      1.76804343	     -9.40071220	      0.00000000	    -60.05962481	     -2.97432843	     -4.94384247	     56.55106238	     15.31711753	    -54.25996269	     32.81643237	     77.16764714	      0.00000000	      0.00000000	     58.01669444	     15.74879436	    -42.10554437	     33.32666424	      3.52613494	      0.00000000	      0.00000000
      7.80000000	      5.15227649	      4.50486919	      5.62120482	      0.06218876	      1.32054280	     -0.00634856	     38.27328785	     -5.54587221	     -0.31520509	     58.07894500	      1.01366882	     -6.59010837	    -14.49862112	      0.00000000	     42.14730964	     -4.05343776	     -7.92665472	     98.96819916	      1.72732093	      1.97534656	     -9.05942287	      0.00000000	    -60.01499935	     -2.28244364	     -5.29333869	     56.45677702	     15.19147339	    -54.29975623	     32.82650784	     77.18073268	      0.00000000	      0.00000000	     58.06531667	     15.78684151	    -41.88484422	     33.20659188	      3.42692850	      0.00000000	      0.00000000
      7.81700000	      4.99317878	      4.81214759	      6.25343598	      0.06192133	      1.32044166	     -0.00696361	     36.15667592	     -6.19134759	     -0.93594010	     55.36840274	      0.96636093	     -7.94614024	    -13.98040825	      0.00000000	     44.37057342	     -3.67038105	     -7.60673643	    101.24436645	      1.76704754	      1.88515723	     -9.19519184	      0.00000000	    -59.87747881	     -2.07728249	     -5.78409247	     56.29981724	     15.09981454	    -54.36391849	     32.87255546	     77.15845954	      0.00000000	      0.00000000	     58.04314889	     15.81084621	    -41.67832330	     33.08590235	      3.43016773	      0.00000000	      0.00000000
      7.83300000	      4.82071201	      5.03012015	      6.97956555	      0.06158272	      1.32028487	     -0.00762002	     34.14259575	     -6.77554920	     -1.65919588	     52.98646066	      0.92478820	     -9.24038581	    -13.42574359	      0.00000000	     46.69807458	     -3.23525629	     -7.22066409	    103.28641142	      1.80268795	      1.59353537	     -9.67245826	      0.00000000	    -59.70822608	     -1.75442311	     -6.24962365	     56.13502077	     15.00598930	    -54.39946199	     32.89494926	     77.14669217	      0.00000000	      0.00000000	     58.03093069	     15.84576087	    -41.46262133	     32.96330653	      3.40254432	      0.00000000	      0.00000000
      7.85000000	      4.61102719	      5.21006051	      7.76933808	      0.06129175	      1.31998619	     -0.00832993	     32.25523326	     -7.32905970	     -2.51440383	     50.97009261	      0.88959594	    -10.20553391	    -13.09393035	      0.00000000	     49.05248982	     -2.71420758	     -6.82040227	    105.01402150	      1.83284044	      1.42974816	    -10.27387743	      0.00000000	    -59.50018684	     -1.36104546	     -6.72541725	     55.96628305	     14.89065598	    -54.40149000	     32.91088855	     77.08928395	      0.00000000	      0.00000000	     58.00410796	     15.87882795	    -41.23814105	     32.87560071	      3.40453970	      0.00000000	      0.00000000
      7.86700000	      4.35983550	      5.66792454	      7.98727120	      0.06111981	      1.31965139	     -0.00836250	     30.62131339	     -7.71242691	     -2.51883653	     49.34948440	      0.86131099	    -10.60002926	    -13.11224240	      0.00000000	     51.20869670	     -2.39704490	     -7.04445220	    106.28358661	      1.85499853	      1.71634788	    -10.35475411	      0.00000000	    -59.30945879	     -1.61013056	     -7.16175675	     55.83723584	     14.80365201	    -54.38677337	     32.93877528	     76.95852694	      0.00000000	      0.00000000	     57.98950018	     15.95064740	    -41.16278200	     32.81931135	      3.72433464	      0.00000000	      0.00000000
      7.88300000	      4.10828157	      5.66647987	      8.87374078	      0.06073499	      1.31925560	     -0.00940749	     29.05073205	     -8.12161737	     -3.60049282	     47.99378017	      0.83764948	    -12.03652403	    -13.23436475	      0.00000000	     53.56541747	     -1.72671577	     -6.52753973	    107.37999356	      1.87413444	      2.32145359	    -11.02767754	      0.00000000	    -59.06077962	     -0.98064655	     -7.57365114	     55.73615130	     14.66743283	    -54.28510325	     32.94122767	     76.92233721	      0.00000000	      0.00000000	     57.97319047	     15.99391594	    -40.98895169	     32.74844470	      3.60484227	      0.00000000	      0.00000000
      7.90000000	      3.88790467	      5.74042120	      9.48704564	      0.06056240	      1.31884683	     -0.01010086	     27.59868529	     -8.38667913	     -4.35010801	     47.02478925	      0.82073740	    -12.68448241	    -13.44241965	      0.00000000	     55.73629384	     -1.23119492	     -6.24926076	    108.09240796	      1.88656842	      2.53300229	    -11.37732024	      0.00000000	    -58.84731335	     -0.61399157	     -7.91783400	     55.63549121	     14.52089950	    -54.17493307	     32.94884839	     76.92885264	      0.00000000	      0.00000000	     57.92769068	     16.01947746	    -40.73540489	     32.72928971	      3.34142647	      0.00000000	      0.00000000
